# xmcd CD database file
#
# Track frame offsets:
#	150
#	20177
#	34502
#	49432
#	67507
#	82547
#	99267
#	116445
#	129125
#	144650
#	163362
#	177845
#	198405
#	216720
#
# Disc length: 3104 seconds
#
# Revision: 0
# Processed by: cddbd v1.4PL0 Copyright (c) Steve Scherf et al.
# Submitted via: CDex 1.40Beta8
#
DISCID=bc0c1e0e
DTITLE=Bert Floyd - Low Country Soul
DYEAR=1900
DGENRE=Country
TTITLE0=Baby You Lied
TTITLE1=The Game
TTITLE2=Better Days Are Comin'
TTITLE3=Silent Thunder
TTITLE4=I Can't Help It
TTITLE5=Saturday Night
TTITLE6=Nobody's Gonna Love You
TTITLE7=Heart Break Train
TTITLE8=A Fool on Either Side
TTITLE9=Back Home Again
TTITLE10=Love Runs Thin
TTITLE11=Fairytales
TTITLE12=A Married Woman
TTITLE13=The Sound of a Memory
EXTD=ID3G: 2
EXTT0=
EXTT1=
EXTT2=
EXTT3=
EXTT4=
EXTT5=
EXTT6=
EXTT7=
EXTT8=
EXTT9=
EXTT10=
EXTT11=
EXTT12=
EXTT13=
PLAYORDER=
